<?xml version="1.0" encoding="utf-8"?>
<!-- Generator: $$$/GeneralStr/196=Adobe Illustrator 27.6.0, SVG Export Plug-In . SVG Version: 6.00 Build 0)  -->
<svg version="1.1" id="Calque_2_00000041262974306086908310000015884456621709003394_"
	 xmlns="http://www.w3.org/2000/svg" xmlns:xlink="http://www.w3.org/1999/xlink" x="0px" y="0px" viewBox="0 0 749.5 205.7"
	 style="enable-background:new 0 0 749.5 205.7;" xml:space="preserve">
<g>
	<path d="M0,107.8c0-21,9.5-36.2,28-36.2c13.2,0,19.7,7.1,23.5,21.4h3.3C53,84.4,51.4,76.3,51.4,71V48h21.3v94.7H55.4l-0.3-20.5
		h-2.9c-3,15.8-10.8,22.4-23.1,22.4C11.7,144.5,0,130.7,0,107.8z M51.4,109.3v-2.8c0-8.3-5.5-18-15.3-18c-8.7,0-13.8,7.6-13.8,19.3
		c0,11.8,5.5,19.6,14.3,19.6C47.4,127.4,51.4,116.8,51.4,109.3z"/>
	<path d="M85.1,109.3c0-22.2,13.3-37.9,35.5-37.9c22.1,0,34.5,15,32.8,40.8l-47.9,0.4c1.1,11.8,7.8,16.8,16.4,16.8
		c9.5,0,12.2-5.8,13.5-10.4l18.4,3.9c-2.6,12.9-12.2,21.6-31.8,21.6C99,144.5,85.1,132,85.1,109.3z M106,101.4l28-0.3
		c-0.5-9.5-6.6-13.5-13.2-13.5C113.5,87.6,108,92.6,106,101.4z"/>
	<path d="M161,151.5c0-8,6.4-13.5,18.9-14.2v-2.8c-9.6,0-15-1.6-15-6.8c0-4.9,4.6-9.2,16.4-11.4v-2.8c-10.8-0.9-17.5-7.5-17.5-17.6
		c0-12.8,11-23.5,33.1-23.5h36v15.9l-22-2.9v3.2c11.3,1.6,15.9,5,15.9,11.7c0,10.5-11.4,18-29.5,18c-2.1,0-3.7-0.1-10.5-0.8
		c-2.9,2.5-4.5,3.9-4.5,5.4c0,1.7,2.2,2.2,5.3,2.2H209c7,0,25.6,0,25.6,18.8c0,15.7-12.8,23.1-40.4,23.1
		C171,167,161,161.8,161,151.5z M216.3,142.7c0-6.4-5.9-6.4-8.8-6.4h-17c-6.4,0-9.5,3.6-9.5,7.6c0,5,4.3,6.3,15.9,6.3
		C212.3,150.2,216.3,148,216.3,142.7z M207.4,97.1c0-6.7-3.9-11.4-11.2-11.4c-7.2,0-11.4,4.7-11.4,11.4c0,6.1,3.9,10.7,11.3,10.7
		C203.6,107.7,207.4,103.2,207.4,97.1z"/>
	<path d="M246.1,73.3h17.4l0.4,23.5h2.6c1.7-18.2,8.3-25.1,22.8-25.1c1.4,0,3,0,5.4,0.4l-0.8,22.6c-2.8-1.3-6.3-1.7-8.8-1.7
		c-10.4,0-16.3,5.9-17.6,18.3v31.4h-21.3V73.3z"/>
	<path d="M300.8,107.8c0-24.5,14.9-36.4,36-36.4c21,0,36,12.1,36,36.6c0,25.1-15.7,36.6-36.2,36.6
		C315.5,144.5,300.8,132.3,300.8,107.8z M351.5,109.3c0-13.8-5-21.7-15.4-21.7c-9.2,0-14.1,6.6-14.1,20c0,14.3,5.5,21.6,15.3,21.6
		C346.8,129.2,351.5,122.6,351.5,109.3z"/>
	<path d="M378.4,73.3h22.1l8.5,52.9h2.6l10.7-52.9h25.1l11,52.9h2.8l8.2-52.9h21.7l-16.8,69.4h-29.2l-9.6-52.3H433l-8.9,52.3h-28.8
		L378.4,73.3z"/>
	<path d="M506.3,117.1V89.8h-9.9l0.4-16.4h7.1c5.7-0.1,8.3-1.3,9.1-5.8l1.7-9.7h12v15.4h16.7v17.2h-16.7v25.6c0,6.1,2.8,8.7,8.8,8.7
		c3.3,0,6.4-0.7,8.4-2v19.6c-5.7,1.7-10.3,2-13.8,2C513.7,144.4,506.3,136.1,506.3,117.1z"/>
	<path d="M556.4,48h21.2v21.7c0,7.1-1.3,15.4-2.9,23.1h3.2c3.7-12.8,9.2-21.4,23.3-21.4c16.4,0,24.6,11.2,24.6,35.1v36.2h-21.3
		v-32.6c0-14.2-4.1-21.3-12.5-21.3c-9.9,0-14.3,10-14.3,22.4v31.6h-21.2V48z"/>
	<g>
		<path d="M89.9,3.3c0-2.1,1.4-3.3,4-3.3c2.6,0,3.9,1.1,3.9,3.3c0,2.2-1.3,3.3-3.9,3.3C91.2,6.6,89.9,5.5,89.9,3.3z M91.2,13.3h5.2
			v36.8h-5.2V13.3z"/>
		<path d="M108.4,27.1V13.3h5.1l-0.9,11.9h1.1c2-8.7,6.1-12.7,12.9-12.7c8,0,12.2,5.9,12.2,17v20.7h-5.3V29.8
			c0-8.5-2.8-12.5-8.1-12.5c-7.2,0-11.4,7.7-11.8,16.2v16.7h-5.3V27.1z"/>
		<path d="M151.4,40.3V17.9h-5.6v-4.6h3.4c2.2,0,3-0.7,3.3-2.6l0.6-5.6h3.4v8.3h11V18h-11v22.4c0,3.9,1.9,5.6,5.2,5.6
			c1.8,0,3.9-0.4,6-2v5.5c-2.6,1-4.9,1.4-6.9,1.4C154.4,50.8,151.4,47.3,151.4,40.3z"/>
		<path d="M173.5,32.3c0-11.5,6-19.9,16.8-19.9c9.2,0,15.7,6.2,15.3,19.9l-27,0.2c0.1,8.9,4.1,13.9,12.3,13.9
			c6.4,0,9.3-3.1,10.6-7.4l4.6,1.1C204.3,47,199.1,51,190.8,51C179.5,51,173.5,43.5,173.5,32.3z M179,28.5l21.6-0.1
			c-0.4-7.4-4.5-11.2-10.3-11.2C184.2,17.2,180,21.3,179,28.5z"/>
		<path d="M215.4,29.5V13.3h5l-0.8,12.9h1.1c1.4-7.9,4.6-13.8,10.9-13.8c1.1,0,2.4,0.1,4,0.6l-0.4,5.5c-1.4-0.4-2.8-0.8-4-0.8
			c-5.7,0-8.7,6.6-10.7,14.4v18h-5.3V29.5z"/>
		<path d="M243.1,27.1V13.3h5.1l-0.9,11.9h1.1c2-8.7,6.1-12.7,12.9-12.7c8,0,12.2,5.9,12.2,17v20.7h-5.3V29.8
			c0-8.5-2.8-12.5-8.1-12.5c-7.2,0-11.4,7.7-11.8,16.2v16.7h-5.3V27.1z"/>
		<path d="M282.6,40.5c0-6.8,4.3-10.4,16.7-12c5.6-0.7,7.9-1,7.9-4.5c0-3.9-2.6-7-8.3-7c-4.2,0-9.7,1.9-10.5,8.3l-4.9-1.8
			c1.2-6.6,6.7-11.1,15.6-11.1c8.9,0,13.4,4.4,13.4,14.1v8.8c0,4.4,0.4,10.5,0.9,14.8h-4.9c-0.4-3.2-0.5-6.2-0.6-9.3H307
			c-2.1,5.4-6.2,10.2-13.7,10.2C287.2,51,282.6,47.7,282.6,40.5z M307.3,36.3v-5.8c-6.2,2.8-19.5,0.9-19.5,9.8
			c0,4.1,2.6,6.2,6.6,6.2C298.7,46.5,303.8,43.8,307.3,36.3z"/>
		<path d="M325.3,40.3V17.9h-5.6v-4.6h3.4c2.2,0,3-0.7,3.3-2.6l0.6-5.6h3.4v8.3h11V18h-11v22.4c0,3.9,1.9,5.6,5.2,5.6
			c1.8,0,3.9-0.4,6-2v5.5c-2.6,1-4.9,1.4-6.9,1.4C328.4,50.8,325.3,47.3,325.3,40.3z"/>
		<path d="M348.7,3.3c0-2.1,1.4-3.3,4-3.3c2.6,0,3.9,1.1,3.9,3.3c0,2.2-1.3,3.3-3.9,3.3C350.1,6.6,348.7,5.5,348.7,3.3z M350.1,13.3
			h5.2v36.8h-5.2V13.3z"/>
		<path d="M365.3,31.5c0-12.7,7.7-19.1,17.3-19.1c9.9,0,17.5,6.9,17.5,19.5c0,12.5-7.5,19.1-17.3,19.1
			C372.4,51,365.3,43.8,365.3,31.5z M394.8,32c0-9-4.7-14.8-12.4-14.8c-7.2,0-11.9,5.2-11.9,14.2c0,9.2,4.9,15,12.4,15
			C390.3,46.4,394.8,40.8,394.8,32z"/>
		<path d="M410.1,27.1V13.3h5.1l-0.9,11.9h1.1c2-8.7,6.1-12.7,12.9-12.7c8,0,12.2,5.9,12.2,17v20.7h-5.3V29.8
			c0-8.5-2.8-12.5-8.1-12.5c-7.2,0-11.4,7.7-11.8,16.2v16.7h-5.3V27.1z"/>
		<path d="M449.5,40.5c0-6.8,4.3-10.4,16.7-12c5.6-0.7,7.9-1,7.9-4.5c0-3.9-2.6-7-8.3-7c-4.2,0-9.7,1.9-10.5,8.3l-4.9-1.8
			c1.2-6.6,6.7-11.1,15.6-11.1c8.9,0,13.4,4.4,13.4,14.1v8.8c0,4.4,0.4,10.5,0.9,14.8h-4.9c-0.4-3.2-0.5-6.2-0.6-9.3h-0.9
			c-2.1,5.4-6.2,10.2-13.7,10.2C454.2,51,449.5,47.7,449.5,40.5z M474.3,36.3v-5.8c-6.2,2.8-19.5,0.9-19.5,9.8
			c0,4.1,2.6,6.2,6.6,6.2C465.6,46.5,470.8,43.8,474.3,36.3z"/>
		<path d="M491,0.4h5.3v49.7H491V0.4z"/>
	</g>
	<g>
		<path d="M257.7,180.4v-13.6h5l-0.8,11.7h1.1c2-8.6,6-12.5,12.7-12.5c7.9,0,12,5.8,12,16.8v20.3h-5.2v-20c0-8.4-2.7-12.3-8-12.3
			c-7,0-11.2,7.6-11.6,15.9v16.4h-5.2V180.4z"/>
		<path d="M296.9,185.6c0-11.3,5.9-19.6,16.5-19.6c9.1,0,15.5,6.1,15.1,19.6l-26.5,0.2c0.1,8.7,4.1,13.7,12.1,13.7
			c6.3,0,9.2-3,10.4-7.3l4.6,1.1c-1.9,6.8-7,10.7-15.1,10.7C302.8,204,296.9,196.6,296.9,185.6z M302.3,181.8l21.3-0.1
			c-0.4-7.3-4.4-11-10.1-11C307.4,170.6,303.3,174.7,302.3,181.8z"/>
		<path d="M339.5,193.5v-22.1H334v-4.5h3.3c2.2,0,3-0.7,3.2-2.6l0.6-5.6h3.3v8.2h10.8v4.6h-10.8v22c0,3.9,1.8,5.5,5.1,5.5
			c1.8,0,3.8-0.4,5.9-2v5.4c-2.6,1-4.9,1.4-6.8,1.4C342.5,203.8,339.5,200.4,339.5,193.5z"/>
		<path d="M360.5,166.8h5.4l7.8,31.7h1.1l8.2-31.7h7l8.2,31.7h1l7.8-31.7h5.3l-9.9,36.3h-7.3l-8.2-31.6h-0.7l-8.2,31.6h-7.5
			L360.5,166.8z"/>
		<path d="M417.9,184.8c0-12.5,7.6-18.8,17-18.8c9.7,0,17.2,6.8,17.2,19.2c0,12.3-7.4,18.8-17,18.8
			C424.9,204,417.9,196.8,417.9,184.8z M447,185.2c0-8.9-4.6-14.6-12.2-14.6c-7,0-11.7,5.1-11.7,14c0,9.1,4.8,14.8,12.3,14.8
			C442.5,199.4,447,193.9,447,185.2z"/>
		<path d="M462,182.8v-15.9h4.9l-0.8,12.7h1.1c1.4-7.7,4.5-13.6,10.8-13.6c1.1,0,2.3,0.1,3.9,0.6l-0.4,5.4c-1.3-0.4-2.7-0.8-3.9-0.8
			c-5.6,0-8.6,6.5-10.5,14.2v17.7H462V182.8z"/>
		<path d="M489.2,154.1h5.2v28.2c7.8-3.8,15.1-11.3,17.3-15.4h6.1c-3.9,7.1-12.2,14.6-18.9,16.4v0.7c8.3-0.2,13.1,6.8,18.1,15
			l2.3,4.2h-5.9l-1.8-3.2c-4.4-7.3-8.6-13.2-15.8-13.2h-1.5v16.4h-5.2V154.1z"/>
	</g>
</g>
</svg>
