<?xml version="1.0" encoding="UTF-8"?>
<svg id="Layer_1" data-name="Layer 1" xmlns="http://www.w3.org/2000/svg" version="1.1" viewBox="0 0 538.2 268.2">
  <defs>
    <style>
      .cls-1 {
        letter-spacing: .2em;
      }

      .cls-1, .cls-2, .cls-3, .cls-4, .cls-5, .cls-6 {
        isolation: isolate;
      }

      .cls-1, .cls-2, .cls-4, .cls-5, .cls-7, .cls-6 {
        fill: #004446;
      }

      .cls-1, .cls-2, .cls-4, .cls-5, .cls-6 {
        font-family: CooperHewitt-Semibold, 'Cooper Hewitt';
        font-size: 39.3px;
        font-weight: 600;
      }

      .cls-8 {
        fill: #7ad5ff;
      }

      .cls-8, .cls-9, .cls-10, .cls-11, .cls-7, .cls-12, .cls-13 {
        stroke-width: 0px;
      }

      .cls-9 {
        fill: #f2faff;
      }

      .cls-2 {
        letter-spacing: .2em;
      }

      .cls-10 {
        fill: #c7e01f;
      }

      .cls-4 {
        letter-spacing: .2em;
      }

      .cls-11 {
        fill: #b5e8ff;
      }

      .cls-5 {
        letter-spacing: .1em;
      }

      .cls-12 {
        fill: #e3f094;
      }

      .cls-13 {
        fill: #ffe54b;
      }

      .cls-6 {
        letter-spacing: .2em;
      }
    </style>
  </defs>
  <g class="cls-3">
    <text class="cls-6" transform="translate(7.5 35) scale(.9 1)"><tspan x="0" y="0">INTERN</tspan></text>
    <text class="cls-5" transform="translate(175.1 35) scale(.9 1)"><tspan x="0" y="0">A</tspan></text>
    <text class="cls-4" transform="translate(203.9 35) scale(.9 1)"><tspan x="0" y="0">TIONAL</tspan></text>
    <text class="cls-4" transform="translate(101.1 83.4) scale(.9 1)"><tspan x="0" y="0">DEG</tspan></text>
    <text class="cls-2" transform="translate(192.9 83.4) scale(.9 1)"><tspan x="0" y="0">R</tspan></text>
    <text class="cls-2" transform="translate(222.5 83.4) scale(.9 1)"><tspan x="0" y="0">O</tspan></text>
    <text class="cls-1" transform="translate(254.1 83.4) scale(.9 1)"><tspan x="0" y="0">WTH</tspan></text>
    <text class="cls-4" transform="translate(118.5 131.8) scale(.9 1)"><tspan x="0" y="0">NE</tspan></text>
    <text class="cls-2" transform="translate(179.1 131.8) scale(.9 1)"><tspan x="0" y="0">T</tspan></text>
    <text class="cls-6" transform="translate(206.2 131.8) scale(.9 1)"><tspan x="0" y="0">WORK</tspan></text>
  </g>
  <path class="cls-10" d="M495.1,178.6c1.5-9.3,6.7-55.5-28.1-92-23.4-24.5-47.7-32.2-64.6-34.3v38c14.1,1.5,31,7.6,47.4,24.1,23.8,24.1,22.2,53.8,20.7,64.2h24.7Z"/>
  <path class="cls-11" d="M396.5,134.5v-38.8c-10.3-.2-18.3,2.1-22.2,3.5l13.2,37.3c2.9-.9,5.9-1.6,8.9-2h0Z"/>
  <path class="cls-12" d="M396.4,89.9v-38.2c-6.2-.3-11,0-13.8.4l5,38.1c2.7-.3,5.7-.4,8.8-.4h0Z"/>
  <path class="cls-9" d="M413.6,202.7c-11.4-1.1-19.8-11.3-18.6-22.7l6,.6c-.8,8.1,5.1,15.3,13.2,16.1.7,0,1.5.1,2.2.1,5.1,0,10.1-1.8,14.2-5.1,4.6-3.8,7.5-9.1,8.1-15.1,1.8-18.2-11.5-34.5-29.8-36.4-1.6-.2-3.3-.2-4.9-.2s-2.9,0-4.3.2c-23.3,2.1-41.9,20.4-44.2,43.7-1.9,18.9,3.7,37.3,15.7,52,12,14.7,29,23.8,47.9,25.7,51.2,5.1,97.5-28.5,109.7-77h-85.9c-4.5,11.6-16.3,19.4-29.3,18.1h0Z"/>
  <path class="cls-8" d="M444.5,178.6h19.7c1.2-8.3,3.6-37.2-18.8-59.9-15.1-15.2-30.3-21-43-22.5v37.9c2.4,0,4.8,0,7.1.2,21.5,2.1,37.3,21.4,35.2,43,0,.4-.1.9-.2,1.3h0Z"/>
  <path class="cls-13" d="M402.2,8.1v37.9c18.1,2,44,10,69.1,36.4,36,37.8,31.7,84.1,29.9,96.2h28.9c.5-2.9,1-5.9,1.3-8.9,8-80.1-49.8-151.8-129.2-161.5h0Z"/>
  <path class="cls-7" d="M399.5,1.8l-3.3-.3v44.1c-10.2-.4-16.9,1-17.6,1.2l-2.6.6,5.7,43.7c-7.6,1.4-12.3,3.6-12.4,3.7l-2.4,1.2,15.2,42.7c-17.6,7.8-30.3,24.6-32.3,44.7-2,20.5,4,40.5,17,56.4,13,15.9,31.5,25.8,51.9,27.8,3.6.4,7.3.5,10.9.5,55.1,0,102.5-41.9,108.1-97.9C545.9,85.8,484,10.2,399.5,1.8h0ZM396.3,51.8v38.1c-3.1,0-6,0-8.7.4l-5-38.1c2.8-.4,7.5-.8,13.7-.4h0ZM374.3,99.2c3.9-1.4,11.8-3.8,22.1-3.5v38.8c-3,.4-6,1.1-8.9,2l-13.2-37.3h0ZM419.1,261.6c-18.9-1.9-35.9-11-47.9-25.6-12-14.7-17.6-33.1-15.7-52,2.3-23.3,20.9-41.7,44.2-43.7,1.4-.1,2.8-.2,4.3-.2s3.3,0,4.9.2c18.2,1.8,31.6,18.1,29.8,36.4-.6,5.9-3.5,11.3-8.1,15.1-4,3.3-9,5.1-14.2,5.1s-1.5,0-2.2-.1c-8.1-.8-14-8-13.2-16.1l-6-.6c-1.1,11.4,7.2,21.6,18.6,22.7,13,1.3,24.8-6.4,29.3-18.1h85.9c-12.2,48.5-58.5,82.1-109.7,77h0ZM449.7,114.4c-16.4-16.6-33.2-22.6-47.3-24.1v-38c16.9,2,41.2,9.8,64.6,34.3,34.8,36.5,29.6,82.8,28.1,92h-24.7c1.5-10.3,3.2-40.1-20.7-64.2h0ZM409.5,134.3c-2.3-.2-4.7-.3-7-.2v-37.9c12.6,1.5,27.8,7.3,42.9,22.5,22.4,22.7,20.1,51.6,18.8,59.9h-19.7c0-.4.1-.9.2-1.3,2.1-21.5-13.6-40.8-35.2-43h0ZM531.5,169.6c-.3,3-.8,6-1.3,8.9h-28.9c1.9-12.1,6.2-58.4-29.9-96.2-25.1-26.3-51-34.4-69-36.4V8.1c79.4,9.7,137.1,81.5,129.1,161.5h0Z"/>
</svg>