<?xml version="1.0" encoding="UTF-8"?><svg id="Layer_1" xmlns="http://www.w3.org/2000/svg" viewBox="0 0 528.34 266.73"><defs><style>.cls-1{fill:#7ad5ff;}.cls-1,.cls-2,.cls-3,.cls-4,.cls-5,.cls-6,.cls-7{stroke-width:0px;}.cls-2{fill:#f2faff;}.cls-8{isolation:isolate;}.cls-3{fill:#c7e01f;}.cls-4{fill:#b5e8ff;}.cls-5{fill:#004446;}.cls-6{fill:#e3f094;}.cls-7{fill:#ffe54b;}</style></defs><g class="cls-8"><g class="cls-8"><path class="cls-5" d="M4.95,2.89v30.68H0V2.89h4.95Z"/><path class="cls-5" d="M37.49,2.89v30.68h-5.25l-10.65-21.16.15,6.49v14.67h-4.69V2.89h5.25l10.65,21.16-.15-6.49V2.89h4.7,0Z"/><path class="cls-5" d="M59.67,7.49v26.08h-4.95V7.49h-6.88V2.89h18.71v4.6s-6.88,0-6.88,0Z"/><path class="cls-5" d="M76.9,2.89h17.15v4.6h-12.2v8.14h10.35v4.56h-10.35v8.77h12.2v4.6h-17.15V2.89Z"/><path class="cls-5" d="M110.13,22.12v11.44h-4.95V2.89h9.02c6.43,0,9.65,3.07,9.65,9.2v.79c0,4.3-1.57,7.11-4.7,8.42l4.7,12.27h-5.36l-4.14-11.44h-4.22ZM110.13,17.52h4.25c2.96,0,4.44-1.6,4.44-4.8v-.43c0-3.2-1.48-4.8-4.44-4.8h-4.25v10.03Z"/><path class="cls-5" d="M155.61,2.89v30.68h-5.25l-10.65-21.16.15,6.49v14.67h-4.69V2.89h5.25l10.65,21.16-.15-6.49V2.89h4.7,0Z"/></g><g class="cls-8"><path class="cls-5" d="M173.49,2.73h6.84l7.58,30.83h-5.32l-1.59-7h-8.13l-1.59,7h-5.36l7.58-30.83h0ZM176.93,8.75l-3.03,13.21h6.03l-2.99-13.21h0Z"/></g><g class="cls-8"><path class="cls-5" d="M206.58,7.49v26.08h-4.95V7.49h-6.88V2.89h18.71v4.6h-6.88,0Z"/><path class="cls-5" d="M228.95,2.89v30.68h-4.95V2.89h4.95Z"/><path class="cls-5" d="M259.15,30.48c-1.72,2.4-4.41,3.6-8.06,3.6s-6.34-1.19-8.08-3.58c-1.74-2.39-2.61-6.21-2.61-11.48v-1.57c0-5.27.87-9.1,2.61-11.48,1.74-2.39,4.43-3.58,8.08-3.58s6.33,1.2,8.06,3.6,2.59,6.22,2.59,11.46v1.57c0,5.24-.86,9.07-2.59,11.46ZM250.91,29.47h.33c1.97,0,3.37-.85,4.2-2.56.83-1.7,1.24-4.34,1.24-7.91v-1.57c0-3.57-.41-6.2-1.24-7.91-.83-1.7-2.22-2.56-4.2-2.56h-.33c-1.97,0-3.37.85-4.2,2.56-.83,1.71-1.24,4.34-1.24,7.91v1.57c0,3.57.41,6.2,1.24,7.91s2.22,2.56,4.2,2.56Z"/><path class="cls-5" d="M293.46,2.89v30.68h-5.25l-10.65-21.16.15,6.49v14.67h-4.7V2.89h5.25l10.65,21.16-.15-6.49V2.89h4.7Z"/><path class="cls-5" d="M311.35,2.73h6.84l7.58,30.83h-5.32l-1.59-7h-8.13l-1.59,7h-5.36l7.58-30.83h0ZM314.79,8.75l-3.03,13.21h6.03l-2.99-13.21h-.01Z"/><path class="cls-5" d="M352.17,33.56h-16.08V2.89h4.95v26.08h11.13v4.6h0Z"/></g><g class="cls-8"><path class="cls-5" d="M113.79,67.41c0,5.22-.94,8.95-2.83,11.19-1.89,2.24-4.89,3.36-9,3.36h-8.5v-30.68h8.5c4.12,0,7.12,1.12,9,3.36,1.89,2.24,2.83,5.97,2.83,11.19v1.57h0ZM98.41,77.36h3.25c2.54,0,4.35-.78,5.43-2.34s1.63-4.1,1.63-7.61v-1.57c0-3.51-.54-6.05-1.63-7.61-1.08-1.56-2.9-2.34-5.43-2.34h-3.25v21.47Z"/><path class="cls-5" d="M125.07,51.29h17.15v4.6h-12.2v8.14h10.35v4.56h-10.35v8.77h12.2v4.6h-17.15v-30.68h0Z"/><path class="cls-5" d="M163.89,82.48c-3.82,0-6.64-1.19-8.45-3.58s-2.72-6.21-2.72-11.48v-1.57c0-5.24.89-9.07,2.66-11.46,1.77-2.4,4.49-3.6,8.13-3.6,3.35,0,5.87.87,7.54,2.6,1.68,1.73,2.51,4.43,2.51,8.1v1.34h-4.95c0-2.54-.36-4.42-1.09-5.62-.73-1.21-1.97-1.81-3.72-1.81h-.33c-2.07,0-3.54.85-4.4,2.54s-1.29,4.33-1.29,7.92v1.57c0,3.62.44,6.27,1.33,7.94.89,1.68,2.43,2.52,4.62,2.52h.33c1.85,0,3.36-.51,4.55-1.53v-5.94h-4.18v-4.56h9.13v13.06c-2.54,2.39-5.77,3.58-9.69,3.58l.02-.02Z"/></g><g class="cls-8"><path class="cls-5" d="M190.24,70.52v11.44h-4.95v-30.68h9.02c6.43,0,9.65,3.07,9.65,9.2v.79c0,4.3-1.57,7.11-4.7,8.42l4.7,12.27h-5.36l-4.14-11.44h-4.22ZM190.24,65.92h4.25c2.96,0,4.44-1.6,4.44-4.8v-.43c0-3.2-1.48-4.8-4.44-4.8h-4.25v10.03Z"/></g><g class="cls-8"><path class="cls-5" d="M233.01,78.88c-1.72,2.4-4.41,3.6-8.06,3.6s-6.34-1.19-8.08-3.58-2.61-6.21-2.61-11.48v-1.57c0-5.27.87-9.1,2.61-11.48,1.74-2.39,4.43-3.58,8.08-3.58s6.33,1.2,8.06,3.6c1.73,2.4,2.59,6.22,2.59,11.46v1.57c0,5.24-.86,9.07-2.59,11.46ZM224.77,77.87h.33c1.97,0,3.37-.85,4.2-2.56.83-1.7,1.24-4.34,1.24-7.91v-1.57c0-3.57-.41-6.2-1.24-7.91-.83-1.7-2.22-2.56-4.2-2.56h-.33c-1.97,0-3.37.85-4.2,2.56-.83,1.71-1.24,4.34-1.24,7.91v1.57c0,3.57.41,6.2,1.24,7.91.83,1.71,2.22,2.56,4.2,2.56Z"/></g><g class="cls-8"><path class="cls-5" d="M265.99,82.12l-4.73-24.86-4.77,24.86h-6.4l-4.95-30.83h5.18l3.29,23.76,4.51-23.76h6.25l4.55,23.76,3.29-23.76h5.18l-4.95,30.83h-6.45Z"/><path class="cls-5" d="M298.27,55.89v26.08h-4.95v-26.08h-6.88v-4.6h18.71v4.6h-6.88,0Z"/><path class="cls-5" d="M330.24,51.29h4.95v30.68h-4.95v-13.37h-9.8v13.37h-4.95v-30.68h4.95v12.74h9.8v-12.74Z"/></g><g class="cls-8"><path class="cls-5" d="M131.28,99.7v30.68h-5.25l-10.65-21.16.15,6.49v14.67h-4.69v-30.68h5.25l10.65,21.16-.15-6.49v-14.67h4.7,0Z"/><path class="cls-5" d="M143.19,99.7h17.15v4.6h-12.2v8.14h10.35v4.56h-10.35v8.77h12.2v4.6h-17.15v-30.68h0Z"/></g><g class="cls-8"><path class="cls-5" d="M181.75,104.3v26.08h-4.95v-26.08h-6.88v-4.6h18.71v4.6s-6.88,0-6.88,0Z"/></g><g class="cls-8"><path class="cls-5" d="M218.08,130.53l-4.73-24.86-4.77,24.86h-6.4l-4.95-30.83h5.18l3.29,23.76,4.51-23.76h6.25l4.55,23.76,3.29-23.76h5.18l-4.95,30.83h-6.45Z"/><path class="cls-5" d="M258.19,127.29c-1.72,2.4-4.41,3.6-8.06,3.6s-6.34-1.19-8.08-3.58-2.61-6.21-2.61-11.48v-1.57c0-5.27.87-9.1,2.61-11.48,1.74-2.39,4.43-3.58,8.08-3.58s6.33,1.2,8.06,3.6,2.59,6.22,2.59,11.46v1.57c0,5.24-.86,9.07-2.59,11.46ZM249.95,126.28h.33c1.97,0,3.37-.85,4.2-2.56.83-1.7,1.24-4.34,1.24-7.9v-1.57c0-3.57-.41-6.2-1.24-7.91-.83-1.7-2.22-2.56-4.2-2.56h-.33c-1.97,0-3.37.85-4.2,2.56s-1.24,4.34-1.24,7.91v1.57c0,3.57.41,6.2,1.24,7.9.83,1.71,2.22,2.56,4.2,2.56h0Z"/><path class="cls-5" d="M277.01,118.93v11.44h-4.95v-30.68h9.02c6.43,0,9.65,3.07,9.65,9.2v.79c0,4.3-1.57,7.11-4.7,8.42l4.7,12.27h-5.36l-4.14-11.44h-4.22ZM277.01,114.33h4.25c2.96,0,4.44-1.6,4.44-4.8v-.43c0-3.2-1.48-4.8-4.44-4.8h-4.25v10.03Z"/><path class="cls-5" d="M306.99,99.7v13.57l8.28-13.57h5.99l-8.21,12.47,8.21,18.21h-5.51l-5.84-13.45-2.92,4.4v9.05h-4.95v-30.68h4.95Z"/></g></g><path class="cls-3" d="M485.18,177.13c1.47-9.26,6.71-55.54-28.09-92.02-23.37-24.49-47.67-32.22-64.64-34.26l.08,38.01c14.04,1.49,30.9,7.56,47.28,24.11,23.85,24.1,22.15,53.83,20.67,64.16h24.7,0Z"/><path class="cls-4" d="M386.57,133.1l-.08-38.81c-10.26-.23-18.24,2.09-22.09,3.52l13.24,37.32c2.88-.91,5.87-1.6,8.94-2.02h-.01Z"/><path class="cls-6" d="M386.48,88.48l-.08-38.15c-6.17-.32-10.93.08-13.69.44l4.97,38.06c2.71-.28,5.66-.42,8.79-.36h0Z"/><path class="cls-2" d="M403.74,201.25c-11.4-1.14-19.75-11.34-18.62-22.74l6.01.6c-.8,8.09,5.12,15.32,13.21,16.13.74.07,1.48.11,2.22.11,5.15,0,10.11-1.75,14.16-5.06,4.62-3.78,7.49-9.14,8.08-15.08,1.82-18.23-11.54-34.54-29.77-36.36-1.63-.16-3.27-.24-4.9-.24-1.43,0-2.85.06-4.27.19-23.28,2.05-41.87,20.44-44.19,43.74-1.88,18.86,3.7,37.32,15.7,51.98,12.01,14.66,29,23.78,47.86,25.65,51.16,5.07,97.48-28.54,109.7-77h-85.91c-4.48,11.64-16.3,19.37-29.29,18.08h0Z"/><path class="cls-1" d="M434.6,177.13h19.74c1.24-8.3,3.61-37.24-18.84-59.92-15.07-15.23-30.3-20.98-42.98-22.5l.08,37.88c2.33-.07,4.68.02,7.02.25,21.54,2.15,37.32,21.42,35.18,42.96-.04.45-.13.88-.2,1.32h0Z"/><path class="cls-7" d="M392.35,6.71l.08,37.87c18.03,1.96,43.88,10.01,69.02,36.36,36.03,37.77,31.74,84.09,29.86,96.19h28.94c.55-2.93,1.01-5.9,1.31-8.92,7.98-80.05-49.75-151.79-129.21-161.5h0Z"/><path class="cls-5" d="M389.62.33l-3.33-.33.09,44.13c-10.34-.44-17.02,1.04-17.74,1.21l-2.65.63,5.72,43.74c-7.6,1.44-12.29,3.62-12.43,3.68l-2.44,1.18,15.16,42.73c-17.6,7.81-30.34,24.6-32.33,44.65-2.04,20.46,4.01,40.49,17.04,56.4,13.03,15.91,31.47,25.8,51.93,27.84,3.65.36,7.26.54,10.86.54,55.12,0,102.49-41.93,108.07-97.91C535.99,84.34,474.11,8.76,389.62.34h0ZM386.4,50.33l.08,38.15c-3.13-.06-6.08.08-8.79.36l-4.97-38.06c2.75-.36,7.52-.76,13.69-.44h0ZM364.4,97.8c3.86-1.42,11.83-3.75,22.09-3.52l.08,38.81c-3.07.43-6.05,1.11-8.94,2.02l-13.24-37.32h.01ZM409.24,260.18c-18.86-1.88-35.85-10.99-47.86-25.65-12.01-14.66-17.58-33.12-15.7-51.98,2.32-23.3,20.9-41.69,44.19-43.74,1.41-.12,2.84-.19,4.27-.19,1.63,0,3.27.08,4.9.24,18.23,1.82,31.58,18.12,29.77,36.36-.59,5.94-3.46,11.29-8.08,15.08-4.04,3.31-9,5.06-14.16,5.06-.74,0-1.48-.04-2.22-.11-8.09-.81-14.01-8.04-13.21-16.13l-6.01-.6c-1.14,11.4,7.22,21.6,18.62,22.74,12.99,1.3,24.81-6.44,29.29-18.08h85.91c-12.22,48.47-58.54,82.08-109.7,77h-.01ZM439.8,112.97c-16.38-16.55-33.24-22.61-47.28-24.11l-.08-38.01c16.97,2.04,41.27,9.77,64.64,34.26,34.8,36.48,29.57,82.76,28.09,92.02h-24.7c1.48-10.33,3.18-40.06-20.67-64.16h0ZM399.63,132.85c-2.33-.23-4.69-.32-7.02-.25l-.08-37.88c12.67,1.52,27.9,7.27,42.98,22.5,22.44,22.67,20.08,51.61,18.84,59.92h-19.74c.06-.44.15-.87.2-1.32,2.15-21.54-13.63-40.82-35.18-42.96h0ZM521.56,168.21c-.3,3.02-.76,5.99-1.31,8.92h-28.94c1.88-12.1,6.17-58.42-29.86-96.19-25.14-26.35-50.99-34.4-69.02-36.36l-.08-37.87c79.46,9.71,137.19,81.45,129.21,161.5h0Z"/></svg>