<?xml version="1.0" encoding="utf-8"?>
<!-- Generator: $$$/GeneralStr/196=Adobe Illustrator 27.6.0, SVG Export Plug-In . SVG Version: 6.00 Build 0)  -->
<svg version="1.1" id="Calque_2_00000041262974306086908310000015884456621709003394_"
	 xmlns="http://www.w3.org/2000/svg" xmlns:xlink="http://www.w3.org/1999/xlink" x="0px" y="0px" viewBox="0 0 629.8 259.3"
	 style="enable-background:new 0 0 629.8 259.3;" xml:space="preserve">
<g>
	<g>
		<path d="M2,124.8c0-21,9.5-36.2,28-36.2c13.2,0,19.7,7.1,23.5,21.4h3.3c-1.8-8.6-3.4-16.7-3.4-22V65h21.3v94.7H57.4l-0.3-20.5
			h-2.9c-3,15.8-10.8,22.4-23.1,22.4C13.7,161.5,2,147.7,2,124.8z M53.4,126.3v-2.8c0-8.3-5.5-18-15.3-18c-8.7,0-13.8,7.6-13.8,19.3
			c0,11.8,5.5,19.6,14.3,19.6C49.4,144.4,53.4,133.8,53.4,126.3z"/>
		<path d="M87.1,126.3c0-22.2,13.3-37.9,35.5-37.9c22.1,0,34.5,15,32.8,40.8l-47.9,0.4c1.1,11.8,7.8,16.8,16.4,16.8
			c9.5,0,12.2-5.8,13.5-10.4l18.4,3.9c-2.6,12.9-12.2,21.6-31.8,21.6C101,161.5,87.1,149,87.1,126.3z M108,118.4l28-0.3
			c-0.5-9.5-6.6-13.5-13.2-13.5C115.5,104.6,110,109.6,108,118.4z"/>
		<path d="M163,168.5c0-8,6.4-13.5,18.9-14.2v-2.8c-9.6,0-15-1.6-15-6.8c0-4.9,4.6-9.2,16.4-11.4v-2.8c-10.8-0.9-17.5-7.5-17.5-17.6
			c0-12.8,11-23.5,33.1-23.5h36v15.9l-22-2.9v3.2c11.3,1.6,15.9,5,15.9,11.7c0,10.5-11.4,18-29.5,18c-2.1,0-3.7-0.1-10.5-0.8
			c-2.9,2.5-4.5,3.9-4.5,5.4c0,1.7,2.2,2.2,5.3,2.2H211c7,0,25.6,0,25.6,18.8c0,15.7-12.8,23.1-40.4,23.1
			C173,184,163,178.8,163,168.5z M218.3,159.7c0-6.4-5.9-6.4-8.8-6.4h-17c-6.4,0-9.5,3.6-9.5,7.6c0,5,4.3,6.3,15.9,6.3
			C214.3,167.2,218.3,165,218.3,159.7z M209.4,114.1c0-6.7-3.9-11.4-11.2-11.4c-7.2,0-11.4,4.7-11.4,11.4c0,6.1,3.9,10.7,11.3,10.7
			C205.6,124.7,209.4,120.2,209.4,114.1z"/>
		<path d="M248.1,90.3h17.4l0.4,23.5h2.6c1.7-18.2,8.3-25.1,22.8-25.1c1.4,0,3,0,5.4,0.4l-0.8,22.6c-2.8-1.3-6.3-1.7-8.8-1.7
			c-10.4,0-16.3,5.9-17.6,18.3v31.4h-21.3L248.1,90.3L248.1,90.3z"/>
		<path d="M302.8,124.8c0-24.5,14.9-36.4,36-36.4c21,0,36,12.1,36,36.6c0,25.1-15.7,36.6-36.2,36.6
			C317.5,161.5,302.8,149.3,302.8,124.8z M353.5,126.3c0-13.8-5-21.7-15.4-21.7c-9.2,0-14.1,6.6-14.1,20c0,14.3,5.5,21.6,15.3,21.6
			C348.8,146.2,353.5,139.6,353.5,126.3z"/>
		<path d="M380.4,90.3h22.1l8.5,52.9h2.6l10.7-52.9h25.1l11,52.9h2.8l8.2-52.9h21.7l-16.8,69.4h-29.2l-9.6-52.3H435l-8.9,52.3h-28.8
			L380.4,90.3z"/>
		<path d="M508.3,134.1v-27.3h-9.9l0.4-16.4h7.1c5.7-0.1,8.3-1.3,9.1-5.8l1.7-9.7h12v15.4h16.7v17.2h-16.7v25.6
			c0,6.1,2.8,8.7,8.8,8.7c3.3,0,6.4-0.7,8.4-2v19.6c-5.7,1.7-10.3,2-13.8,2C515.7,161.4,508.3,153.1,508.3,134.1z"/>
		<path d="M558.4,65h21.2v21.7c0,7.1-1.3,15.4-2.9,23.1h3.2c3.7-12.8,9.2-21.4,23.3-21.4c16.4,0,24.6,11.2,24.6,35.1v36.2h-21.3
			v-32.6c0-14.2-4.1-21.3-12.5-21.3c-9.9,0-14.3,10-14.3,22.4v31.6h-21.2L558.4,65L558.4,65z"/>
	</g>
	<g>
		<path d="M111.7,4.3c0-2.1,1.4-3.3,4-3.3c2.6,0,3.9,1.1,3.9,3.3s-1.3,3.3-3.9,3.3C113,7.6,111.7,6.5,111.7,4.3z M113,14.3h5.2v36.8
			H113V14.3z"/>
		<path d="M130.2,28.1V14.3h5.1l-0.9,11.9h1.1c2-8.7,6.1-12.7,12.9-12.7c8,0,12.2,5.9,12.2,17v20.7h-5.3V30.8
			c0-8.5-2.8-12.5-8.1-12.5c-7.2,0-11.4,7.7-11.8,16.2v16.7h-5.3V28.1H130.2z"/>
		<path d="M173.2,41.3V18.9h-5.6v-4.6h3.4c2.2,0,3-0.7,3.3-2.6l0.6-5.6h3.4v8.3h11V19h-11v22.4c0,3.9,1.9,5.6,5.2,5.6
			c1.8,0,3.9-0.4,6-2v5.5c-2.6,1-4.9,1.4-6.9,1.4C176.2,51.8,173.2,48.3,173.2,41.3z"/>
		<path d="M195.3,33.3c0-11.5,6-19.9,16.8-19.9c9.2,0,15.7,6.2,15.3,19.9l-27,0.2c0.1,8.9,4.1,13.9,12.3,13.9
			c6.4,0,9.3-3.1,10.6-7.4l4.6,1.1c-1.8,6.9-7,10.9-15.3,10.9C201.3,52,195.3,44.5,195.3,33.3z M200.8,29.5l21.6-0.1
			c-0.4-7.4-4.5-11.2-10.3-11.2C206,18.2,201.8,22.3,200.8,29.5z"/>
		<path d="M237.2,30.5V14.3h5l-0.8,12.9h1.1c1.4-7.9,4.6-13.8,10.9-13.8c1.1,0,2.4,0.1,4,0.6l-0.4,5.5c-1.4-0.4-2.8-0.8-4-0.8
			c-5.7,0-8.7,6.6-10.7,14.4v18H237V30.5H237.2z"/>
		<path d="M264.9,28.1V14.3h5.1l-0.9,11.9h1.1c2-8.7,6.1-12.7,12.9-12.7c8,0,12.2,5.9,12.2,17v20.7H290V30.8
			c0-8.5-2.8-12.5-8.1-12.5c-7.2,0-11.4,7.7-11.8,16.2v16.7h-5.3L264.9,28.1L264.9,28.1z"/>
		<path d="M304.4,41.5c0-6.8,4.3-10.4,16.7-12c5.6-0.7,7.9-1,7.9-4.5c0-3.9-2.6-7-8.3-7c-4.2,0-9.7,1.9-10.5,8.3l-4.9-1.8
			c1.2-6.6,6.7-11.1,15.6-11.1s13.4,4.4,13.4,14.1v8.8c0,4.4,0.4,10.5,0.9,14.8h-4.9c-0.4-3.2-0.5-6.2-0.6-9.3h-0.9
			c-2.1,5.4-6.2,10.2-13.7,10.2C309,52,304.4,48.7,304.4,41.5z M329.1,37.3v-5.8c-6.2,2.8-19.5,0.9-19.5,9.8c0,4.1,2.6,6.2,6.6,6.2
			C320.5,47.5,325.6,44.8,329.1,37.3z"/>
		<path d="M347.1,41.3V18.9h-5.6v-4.6h3.4c2.2,0,3-0.7,3.3-2.6l0.6-5.6h3.4v8.3h11V19h-11v22.4c0,3.9,1.9,5.6,5.2,5.6
			c1.8,0,3.9-0.4,6-2v5.5c-2.6,1-4.9,1.4-6.9,1.4C350.2,51.8,347.1,48.3,347.1,41.3z"/>
		<path d="M370.5,4.3c0-2.1,1.4-3.3,4-3.3s3.9,1.1,3.9,3.3s-1.3,3.3-3.9,3.3S370.5,6.5,370.5,4.3z M371.9,14.3h5.2v36.8h-5.2V14.3z"
			/>
		<path d="M387.1,32.5c0-12.7,7.7-19.1,17.3-19.1c9.9,0,17.5,6.9,17.5,19.5c0,12.5-7.5,19.1-17.3,19.1
			C394.2,52,387.1,44.8,387.1,32.5z M416.6,33c0-9-4.7-14.8-12.4-14.8c-7.2,0-11.9,5.2-11.9,14.2c0,9.2,4.9,15,12.4,15
			C412.1,47.4,416.6,41.8,416.6,33z"/>
		<path d="M431.9,28.1V14.3h5.1l-0.9,11.9h1.1c2-8.7,6.1-12.7,12.9-12.7c8,0,12.2,5.9,12.2,17v20.7H457V30.8
			c0-8.5-2.8-12.5-8.1-12.5c-7.2,0-11.4,7.7-11.8,16.2v16.7h-5.3L431.9,28.1L431.9,28.1z"/>
		<path d="M471.3,41.5c0-6.8,4.3-10.4,16.7-12c5.6-0.7,7.9-1,7.9-4.5c0-3.9-2.6-7-8.3-7c-4.2,0-9.7,1.9-10.5,8.3l-4.9-1.8
			c1.2-6.6,6.7-11.1,15.6-11.1s13.4,4.4,13.4,14.1v8.8c0,4.4,0.4,10.5,0.9,14.8h-4.9c-0.4-3.2-0.5-6.2-0.6-9.3h-0.9
			C493.6,47.2,489.5,52,482,52C476,52,471.3,48.7,471.3,41.5z M496.1,37.3v-5.8c-6.2,2.8-19.5,0.9-19.5,9.8c0,4.1,2.6,6.2,6.6,6.2
			C487.4,47.5,492.6,44.8,496.1,37.3z"/>
		<path d="M512.8,1.4h5.3v49.7h-5.3V1.4z"/>
	</g>
	<g>
		<path d="M184.1,222.4v-13.6h5l-0.8,11.7h1.1c2-8.6,6-12.5,12.7-12.5c7.9,0,12,5.8,12,16.8v20.3h-5.2v-20c0-8.4-2.7-12.3-8-12.3
			c-7,0-11.2,7.6-11.6,15.9v16.4h-5.2V222.4z"/>
		<path d="M223.3,227.6c0-11.3,5.9-19.6,16.5-19.6c9.1,0,15.5,6.1,15.1,19.6l-26.5,0.2c0.1,8.7,4.1,13.7,12.1,13.7
			c6.3,0,9.2-3,10.4-7.3l4.6,1.1c-1.9,6.8-7,10.7-15.1,10.7C229.2,246,223.3,238.6,223.3,227.6z M228.7,223.8l21.3-0.1
			c-0.4-7.3-4.4-11-10.1-11C233.8,212.6,229.7,216.7,228.7,223.8z"/>
		<path d="M265.9,235.5v-22.1h-5.5v-4.5h3.3c2.2,0,3-0.7,3.2-2.6l0.6-5.6h3.3v8.2h10.8v4.6h-10.8v22c0,3.9,1.8,5.5,5.1,5.5
			c1.8,0,3.8-0.4,5.9-2v5.4c-2.6,1-4.9,1.4-6.8,1.4C268.9,245.8,265.9,242.4,265.9,235.5z"/>
		<path d="M286.9,208.8h5.4l7.8,31.7h1.1l8.2-31.7h7l8.2,31.7h1l7.8-31.7h5.3l-9.9,36.3h-7.3l-8.2-31.6h-0.7l-8.2,31.6h-7.5
			L286.9,208.8z"/>
		<path d="M344.3,226.8c0-12.5,7.6-18.8,17-18.8c9.7,0,17.2,6.8,17.2,19.2c0,12.3-7.4,18.8-17,18.8
			C351.3,246,344.3,238.8,344.3,226.8z M373.4,227.2c0-8.9-4.6-14.6-12.2-14.6c-7,0-11.7,5.1-11.7,14c0,9.1,4.8,14.8,12.3,14.8
			C368.9,241.4,373.4,235.9,373.4,227.2z"/>
		<path d="M388.4,224.8v-15.9h4.9l-0.8,12.7h1.1c1.4-7.7,4.5-13.6,10.8-13.6c1.1,0,2.3,0.1,3.9,0.6l-0.4,5.4
			c-1.3-0.4-2.7-0.8-3.9-0.8c-5.6,0-8.6,6.5-10.5,14.2v17.7h-5.1V224.8z"/>
		<path d="M415.6,196.1h5.2v28.2c7.8-3.8,15.1-11.3,17.3-15.4h6.1c-3.9,7.1-12.2,14.6-18.9,16.4v0.7c8.3-0.2,13.1,6.8,18.1,15
			l2.3,4.2h-5.9L438,242c-4.4-7.3-8.6-13.2-15.8-13.2h-1.5v16.4h-5.2v-49.1H415.6z"/>
	</g>
</g>
</svg>
