<?xml version="1.0" encoding="UTF-8"?><svg id="Layer_1" xmlns="http://www.w3.org/2000/svg" viewBox="0 0 599.22 268.16"><defs><style>.cls-1{letter-spacing:.19em;}.cls-2{fill:#7ad5ff;}.cls-2,.cls-3,.cls-4,.cls-5,.cls-6,.cls-7,.cls-8{stroke-width:0px;}.cls-3{fill:#f2faff;}.cls-9{letter-spacing:.15em;}.cls-10{letter-spacing:.19em;}.cls-11{font-family:CooperHewitt-Semibold, 'Cooper Hewitt';font-size:39.33px;font-weight:600;}.cls-11,.cls-6{fill:#004446;}.cls-4{fill:#c7e01f;}.cls-12{letter-spacing:.2em;}.cls-13{letter-spacing:.19em;}.cls-5{fill:#b5e8ff;}.cls-7{fill:#e3f094;}.cls-8{fill:#ffe54b;}.cls-14{letter-spacing:.2em;}</style></defs><text class="cls-11" transform="translate(68.45 35) scale(.94 1)"><tspan class="cls-14" x="0" y="0">INTERN</tspan><tspan class="cls-9" x="178.39" y="0">A</tspan><tspan class="cls-14" x="209.03" y="0">TIONAL</tspan><tspan class="cls-14" x="99.62" y="48.4">DEG</tspan><tspan class="cls-10" x="197.31" y="48.4">R</tspan><tspan class="cls-1" x="228.81" y="48.4">O</tspan><tspan class="cls-14" x="262.36" y="48.4">WTH</tspan><tspan class="cls-14" x="118.11" y="96.81">NE</tspan><tspan class="cls-13" x="182.61" y="96.81">T</tspan><tspan class="cls-12" x="211.39" y="96.81">WORK</tspan></text><path class="cls-4" d="M556.07,178.57c1.47-9.26,6.71-55.54-28.09-92.02-23.37-24.49-47.67-32.22-64.64-34.26l.08,38.01c14.04,1.49,30.9,7.56,47.28,24.11,23.85,24.1,22.15,53.83,20.67,64.16h24.7Z"/><path class="cls-5" d="M457.46,134.54l-.08-38.81c-10.26-.23-18.24,2.09-22.09,3.52l13.24,37.32c2.88-.91,5.87-1.6,8.94-2.02Z"/><path class="cls-7" d="M457.37,89.92l-.08-38.15c-6.17-.32-10.93.08-13.69.44l4.97,38.06c2.71-.28,5.66-.42,8.79-.36Z"/><path class="cls-3" d="M474.63,202.69c-11.4-1.14-19.75-11.34-18.62-22.74l6.01.6c-.8,8.09,5.12,15.32,13.21,16.13.74.07,1.48.11,2.22.11,5.15,0,10.11-1.75,14.16-5.06,4.62-3.78,7.49-9.14,8.08-15.08,1.82-18.23-11.54-34.54-29.77-36.36-1.63-.16-3.27-.24-4.9-.24-1.43,0-2.85.06-4.27.19-23.28,2.05-41.87,20.44-44.19,43.74-1.88,18.86,3.7,37.32,15.7,51.98,12.01,14.66,29,23.78,47.86,25.65,51.16,5.07,97.48-28.54,109.7-77h-85.91c-4.48,11.64-16.3,19.37-29.29,18.08Z"/><path class="cls-2" d="M505.49,178.57h19.74c1.24-8.3,3.61-37.24-18.84-59.92-15.07-15.23-30.3-20.98-42.98-22.5l.08,37.88c2.33-.07,4.68.02,7.02.25,21.54,2.15,37.32,21.42,35.18,42.96-.04.45-.13.88-.2,1.32Z"/><path class="cls-8" d="M463.24,8.15l.08,37.87c18.03,1.96,43.88,10.01,69.02,36.36,36.03,37.77,31.74,84.09,29.86,96.19h28.94c.55-2.93,1.01-5.9,1.31-8.92,7.98-80.05-49.75-151.79-129.21-161.5Z"/><path class="cls-6" d="M460.51,1.77l-3.33-.33.09,44.13c-10.34-.44-17.02,1.04-17.74,1.21l-2.65.63,5.72,43.74c-7.6,1.44-12.29,3.62-12.43,3.68l-2.44,1.18,15.16,42.73c-17.6,7.81-30.34,24.6-32.33,44.65-2.04,20.46,4.01,40.49,17.04,56.4,13.03,15.91,31.47,25.8,51.93,27.84,3.65.36,7.26.54,10.86.54,55.12,0,102.49-41.93,108.07-97.91,8.42-84.48-53.46-160.06-137.95-168.48ZM457.29,51.77l.08,38.15c-3.13-.06-6.08.08-8.79.36l-4.97-38.06c2.75-.36,7.52-.76,13.69-.44ZM435.29,99.24c3.86-1.42,11.83-3.75,22.09-3.52l.08,38.81c-3.07.43-6.05,1.11-8.94,2.02l-13.24-37.32ZM480.13,261.62c-18.86-1.88-35.85-10.99-47.86-25.65-12.01-14.66-17.58-33.12-15.7-51.98,2.32-23.3,20.9-41.69,44.19-43.74,1.41-.12,2.84-.19,4.27-.19,1.63,0,3.27.08,4.9.24,18.23,1.82,31.58,18.12,29.77,36.36-.59,5.94-3.46,11.29-8.08,15.08-4.04,3.31-9,5.06-14.16,5.06-.74,0-1.48-.04-2.22-.11-8.09-.81-14.01-8.04-13.21-16.13l-6.01-.6c-1.14,11.4,7.22,21.6,18.62,22.74,12.99,1.3,24.81-6.44,29.29-18.08h85.91c-12.22,48.47-58.54,82.08-109.7,77ZM510.69,114.41c-16.38-16.55-33.24-22.61-47.28-24.11l-.08-38.01c16.97,2.04,41.27,9.77,64.64,34.26,34.8,36.48,29.57,82.76,28.09,92.02h-24.7c1.48-10.33,3.18-40.06-20.67-64.16ZM470.52,134.29c-2.33-.23-4.69-.32-7.02-.25l-.08-37.88c12.67,1.52,27.9,7.27,42.98,22.5,22.44,22.67,20.08,51.61,18.84,59.92h-19.74c.06-.44.15-.87.2-1.32,2.15-21.54-13.63-40.82-35.18-42.96ZM592.45,169.65c-.3,3.02-.76,5.99-1.31,8.92h-28.94c1.88-12.1,6.17-58.42-29.86-96.19-25.14-26.35-50.99-34.4-69.02-36.36l-.08-37.87c79.46,9.71,137.19,81.45,129.21,161.5Z"/></svg>