<?xml version="1.0" encoding="utf-8"?>
<!-- Generator: $$$/GeneralStr/196=Adobe Illustrator 27.6.0, SVG Export Plug-In . SVG Version: 6.00 Build 0)  -->
<svg version="1.1" id="Calque_2_00000041262974306086908310000015884456621709003394_"
	 xmlns="http://www.w3.org/2000/svg" xmlns:xlink="http://www.w3.org/1999/xlink" x="0px" y="0px" viewBox="0 0 340.8 233.3"
	 style="enable-background:new 0 0 340.8 233.3;" xml:space="preserve">
<g>
	<path d="M2,43.8h12V5.3H2V0h30.2v5.3h-12v38.5h12V49H2V43.8z"/>
	<path d="M44.7,0h6.7l18.8,37.1h0.3V0h6v49h-6.7L51,12.1h-0.3V49h-6V0z"/>
	<path d="M100.8,5.6H86V0h35.8v5.6H107V49h-6.2V5.6z"/>
	<path d="M132.2,0h30v5.6h-23.9v15.3h21.8v5.6h-21.8v16.9h23.9V49h-30V0z"/>
	<path d="M207.9,48.3V49h-6.7l-12.9-19.4h-9.1V49h-6.1V0h16.6c10,0,15.5,6.4,15.5,14.7c0,7.3-4.2,12.3-10.6,14.1L207.9,48.3z
		 M179.3,24h10.2c6.2,0,9.5-3.4,9.5-9.2c0-5.7-3.4-9.2-9.5-9.2h-10.2V24z"/>
	<path d="M223.2,25.8h21.4v5.5h-21.4V25.8z"/>
	<path d="M1.4,60h6.7l18.8,37.1h0.3V60h6v49h-6.7L7.6,72.1H7.4V109h-6V60z"/>
	<path d="M79.2,108.3v0.7h-6.5l-3.6-12.8H52L48.4,109H42v-0.7L56.5,60h8.2L79.2,108.3z M67.6,90.7l-6.9-23.9h-0.3l-6.9,23.9H67.6z"
		/>
	<path d="M100.8,65.6H86V60h35.8v5.6H107V109h-6.2V65.6z"/>
	<path d="M132,103.8h12V65.3h-12V60h30.2v5.3h-12v38.5h12v5.3H132V103.8z"/>
	<path d="M172.8,84.5c0-14.4,4.8-25.1,17.9-25.1c13,0,17.9,10.7,17.9,25.1c0,14.4-4.9,25.1-17.9,25.1
		C177.6,109.6,172.8,98.9,172.8,84.5z M202.2,84.5c0-10.2-2-19.4-11.6-19.4c-9.6,0-11.6,9.2-11.6,19.4c0,10.2,2,19.4,11.6,19.4
		S202.2,94.7,202.2,84.5z"/>
	<path d="M218,60h6.7l18.8,37.1h0.3V60h6v49H243l-18.8-36.9H224V109h-6V60z"/>
	<path d="M295.9,108.3v0.7h-6.5l-3.6-12.8h-17.1L265,109h-6.4v-0.7L273.1,60h8.2L295.9,108.3z M284.2,90.7l-6.9-23.9h-0.3l-6.9,23.9
		H284.2z"/>
	<path d="M306,60h6.1v43.4h23v5.6H306V60z"/>
	<path d="M0,120h14.5c13.2,0,20.1,9.1,20.1,24.5c0,14.4-6.2,24.5-20.1,24.5H0V120z M13.9,159.3c6.7,0,9.5-4.6,9.5-14.8
		c0-10.2-2.9-14.7-9.5-14.7h-3.6v29.5H13.9z"/>
	<path d="M43.8,120h33.6v9.8H54.8v9h20.4v9.8H54.8v10.6h22.6v9.7H43.8V120z"/>
	<path d="M84.3,144.6c0-14.1,5.2-25.2,19.6-25.2c12.3,0,17.9,8.8,18.6,17.7h-11.2c-0.1-3.3-1.9-7.8-7.4-7.8c-6,0-8.4,5.4-8.4,15.3
		c0,9.9,2.4,15.2,8.4,15.2c5.7,0,7.7-3.6,8-7.5h-9.2v-9.7h20.7v5.5c0,13.1-6.9,21.6-19.5,21.6C89.5,169.6,84.3,158.5,84.3,144.6z"/>
	<path d="M166.5,168.3v0.7h-12.9l-10.6-17.3H139V169h-11v-49h19.6c10.4,0,16.7,7.3,16.7,15.6c0,7.1-3.7,12.4-9.7,14.8L166.5,168.3z
		 M139,141.9h8.1c4.4,0,6-3.2,6-6.2c0-2.9-1.8-5.9-6-5.9H139V141.9z"/>
	<path d="M171.1,144.5c0-14.1,5.2-25.1,19.6-25.1c14.4,0,19.6,11.1,19.6,25.1c0,14-5.3,25.1-19.6,25.1
		C176.3,169.6,171.1,158.5,171.1,144.5z M199.1,144.5c0-9.9-2.4-15.2-8.4-15.2c-6.1,0-8.4,5.3-8.4,15.2s2.4,15.2,8.4,15.2
		S199.1,154.4,199.1,144.5z"/>
	<path d="M213,120.7V120h9.7l3,37.3h0.3l3.9-37.3h8.3l4,37.3h0.3l2.9-37.3h9.6v0.7l-5.3,48.3h-12.1l-3.4-32.4h-0.3l-3.6,32.4h-12.1
		L213,120.7z"/>
	<path d="M271.7,129.9H259V120h36.5v9.9h-12.7V169h-11.1V129.9z"/>
	<path d="M338.3,120v49h-11v-20.4h-13.4V169h-11v-49h11v18.8h13.4V120H338.3z"/>
	<path d="M1.4,180h6.7l18.8,37.1h0.3V180h6v49h-6.7L7.6,192.1H7.4V229h-6V180z"/>
	<path d="M45.6,180h30v5.6H51.7v15.3h21.8v5.6H51.7v16.9h23.9v5.5h-30V180z"/>
	<path d="M100.8,185.6H86V180h35.8v5.6H107V229h-6.2V185.6z"/>
	<path d="M128.5,180.7V180h6l3.4,37.7h0.3l5.9-37.7h6.3l6,37.7h0.3L160,180h6v0.7l-6,48.3h-6.6l-6-37.7h-0.3l-6.2,37.7h-6.5
		L128.5,180.7z"/>
	<path d="M172.8,204.5c0-14.4,4.8-25.1,17.9-25.1c13,0,17.9,10.7,17.9,25.1c0,14.4-4.9,25.1-17.9,25.1
		C177.6,229.6,172.8,218.9,172.8,204.5z M202.2,204.5c0-10.2-2-19.4-11.6-19.4c-9.6,0-11.6,9.2-11.6,19.4s2,19.4,11.6,19.4
		S202.2,214.7,202.2,204.5z"/>
	<path d="M251.2,228.3v0.7h-6.7l-12.9-19.4h-9.1V229h-6.1v-49h16.6c10,0,15.5,6.4,15.5,14.7c0,7.3-4.2,12.3-10.6,14.1L251.2,228.3z
		 M222.6,204h10.2c6.2,0,9.5-3.4,9.5-9.2c0-5.7-3.4-9.2-9.5-9.2h-10.2V204z"/>
	<path d="M294.1,228.3v0.7h-7.4l-20.2-25.5V229h-6.1v-49h6.1v22.8l19.6-22.8h7.3v0.7L274,203.2L294.1,228.3z"/>
</g>
</svg>
