<?xml version="1.0" encoding="UTF-8"?><svg id="Layer_1" xmlns="http://www.w3.org/2000/svg" viewBox="0 0 522.28 258.31"><defs><style>.cls-1{fill:#004446;stroke-width:0px;}</style></defs><path class="cls-1" d="M4.97.51v30.68H0V.51h4.97Z"/><path class="cls-1" d="M37.64.51v30.68h-5.27l-10.69-21.16.15,6.49v14.67h-4.71V.51h5.27l10.69,21.16-.15-6.49V.51h4.71Z"/><path class="cls-1" d="M59.91,5.11v26.08h-4.97V5.11h-6.9V.51h18.78v4.6h-6.9Z"/><path class="cls-1" d="M77.21.51h17.22v4.6h-12.25v8.14h10.39v4.56h-10.39v8.77h12.25v4.6h-17.22V.51Z"/><path class="cls-1" d="M110.58,19.74v11.44h-4.97V.51h9.06c6.46,0,9.69,3.07,9.69,9.2v.79c0,4.3-1.57,7.11-4.71,8.42l4.71,12.27h-5.38l-4.16-11.44h-4.23ZM110.58,15.14h4.27c2.97,0,4.45-1.6,4.45-4.8v-.43c0-3.2-1.48-4.8-4.45-4.8h-4.27v10.03Z"/><path class="cls-1" d="M156.23.51v30.68h-5.27l-10.69-21.16.15,6.49v14.67h-4.71V.51h5.27l10.69,21.16-.15-6.49V.51h4.71Z"/><path class="cls-1" d="M174.2.35h6.87l7.61,30.83h-5.35l-1.6-7h-8.17l-1.6,7h-5.38L174.2.35ZM177.65,6.37l-3.04,13.21h6.05l-3.01-13.21Z"/><path class="cls-1" d="M207.42,5.11v26.08h-4.97V5.11h-6.9V.51h18.78v4.6h-6.9Z"/><path class="cls-1" d="M229.87.51v30.68h-4.97V.51h4.97Z"/><path class="cls-1" d="M260.2,28.1c-1.73,2.4-4.43,3.6-8.09,3.6s-6.37-1.19-8.11-3.58c-1.74-2.39-2.62-6.21-2.62-11.48v-1.57c0-5.27.87-9.1,2.62-11.48,1.74-2.39,4.45-3.58,8.11-3.58s6.36,1.2,8.09,3.6c1.73,2.4,2.6,6.22,2.6,11.46v1.57c0,5.24-.87,9.07-2.6,11.46ZM251.92,27.1h.33c1.98,0,3.38-.85,4.21-2.56.83-1.7,1.24-4.34,1.24-7.91v-1.57c0-3.57-.41-6.2-1.24-7.91-.83-1.7-2.23-2.56-4.21-2.56h-.33c-1.98,0-3.38.85-4.21,2.56-.83,1.71-1.24,4.34-1.24,7.91v1.57c0,3.57.41,6.2,1.24,7.91.83,1.7,2.23,2.56,4.21,2.56Z"/><path class="cls-1" d="M294.65.51v30.68h-5.27l-10.69-21.16.15,6.49v14.67h-4.71V.51h5.27l10.69,21.16-.15-6.49V.51h4.71Z"/><path class="cls-1" d="M312.61.35h6.87l7.61,30.83h-5.35l-1.6-7h-8.17l-1.6,7h-5.38l7.61-30.83ZM316.06,6.37l-3.04,13.21h6.05l-3.01-13.21Z"/><path class="cls-1" d="M353.59,31.19h-16.15V.51h4.97v26.08h11.17v4.6Z"/><path class="cls-1" d="M114.25,65.04c0,5.22-.95,8.95-2.84,11.19s-4.91,3.36-9.04,3.36h-8.54v-30.68h8.54c4.13,0,7.15,1.12,9.04,3.36s2.84,5.97,2.84,11.19v1.57ZM98.81,74.99h3.27c2.55,0,4.37-.78,5.46-2.34,1.09-1.56,1.63-4.1,1.63-7.61v-1.57c0-3.51-.54-6.05-1.63-7.61s-2.91-2.34-5.46-2.34h-3.27v21.47Z"/><path class="cls-1" d="M125.57,48.92h17.22v4.6h-12.25v8.14h10.39v4.56h-10.39v8.77h12.25v4.6h-17.22v-30.68Z"/><path class="cls-1" d="M164.55,80.1c-3.84,0-6.66-1.19-8.48-3.58-1.82-2.39-2.73-6.21-2.73-11.48v-1.57c0-5.24.89-9.07,2.67-11.46s4.5-3.6,8.17-3.6c3.37,0,5.89.87,7.57,2.6,1.68,1.73,2.52,4.43,2.52,8.1v1.34h-4.97c0-2.54-.37-4.42-1.09-5.62-.73-1.21-1.97-1.81-3.73-1.81h-.33c-2.08,0-3.55.85-4.42,2.54-.87,1.69-1.3,4.33-1.3,7.92v1.57c0,3.62.45,6.27,1.34,7.94.89,1.68,2.44,2.52,4.64,2.52h.33c1.86,0,3.38-.51,4.57-1.53v-5.94h-4.19v-4.56h9.17v13.06c-2.55,2.39-5.79,3.58-9.73,3.58Z"/><path class="cls-1" d="M191.01,68.15v11.44h-4.97v-30.68h9.06c6.46,0,9.69,3.07,9.69,9.2v.79c0,4.3-1.57,7.11-4.71,8.42l4.71,12.27h-5.38l-4.16-11.44h-4.23ZM191.01,63.55h4.27c2.97,0,4.45-1.6,4.45-4.8v-.43c0-3.2-1.48-4.8-4.45-4.8h-4.27v10.03Z"/><path class="cls-1" d="M233.96,76.51c-1.73,2.4-4.43,3.6-8.09,3.6s-6.37-1.19-8.11-3.58c-1.74-2.39-2.62-6.21-2.62-11.48v-1.57c0-5.27.87-9.1,2.62-11.48,1.74-2.39,4.45-3.58,8.11-3.58s6.36,1.2,8.09,3.6c1.73,2.4,2.6,6.22,2.6,11.46v1.57c0,5.24-.87,9.07-2.6,11.46ZM225.68,75.5h.33c1.98,0,3.38-.85,4.21-2.56.83-1.7,1.24-4.34,1.24-7.91v-1.57c0-3.57-.41-6.2-1.24-7.91-.83-1.7-2.23-2.56-4.21-2.56h-.33c-1.98,0-3.38.85-4.21,2.56-.83,1.71-1.24,4.34-1.24,7.91v1.57c0,3.57.41,6.2,1.24,7.91.83,1.7,2.23,2.56,4.21,2.56Z"/><path class="cls-1" d="M267.07,79.75l-4.75-24.86-4.79,24.86h-6.42l-4.97-30.83h5.2l3.3,23.75,4.53-23.75h6.27l4.57,23.75,3.3-23.75h5.2l-4.97,30.83h-6.46Z"/><path class="cls-1" d="M299.47,53.52v26.08h-4.97v-26.08h-6.9v-4.6h18.78v4.6h-6.9Z"/><path class="cls-1" d="M331.58,48.92h4.97v30.68h-4.97v-13.37h-9.84v13.37h-4.97v-30.68h4.97v12.74h9.84v-12.74Z"/><path class="cls-1" d="M131.81,97.32v30.68h-5.27l-10.69-21.16.15,6.49v14.67h-4.71v-30.68h5.27l10.69,21.16-.15-6.49v-14.67h4.71Z"/><path class="cls-1" d="M143.76,97.32h17.22v4.6h-12.25v8.14h10.39v4.56h-10.39v8.77h12.25v4.6h-17.22v-30.68Z"/><path class="cls-1" d="M182.48,101.92v26.08h-4.97v-26.08h-6.9v-4.6h18.78v4.6h-6.9Z"/><path class="cls-1" d="M218.96,128.16l-4.75-24.86-4.79,24.86h-6.42l-4.97-30.83h5.2l3.3,23.75,4.53-23.75h6.27l4.57,23.75,3.3-23.75h5.2l-4.97,30.83h-6.46Z"/><path class="cls-1" d="M259.24,124.91c-1.73,2.4-4.43,3.6-8.09,3.6s-6.37-1.19-8.11-3.58c-1.74-2.39-2.62-6.21-2.62-11.48v-1.57c0-5.27.87-9.1,2.62-11.48,1.74-2.39,4.45-3.58,8.11-3.58s6.36,1.2,8.09,3.6c1.73,2.4,2.6,6.22,2.6,11.46v1.57c0,5.24-.87,9.07-2.6,11.46ZM250.96,123.91h.33c1.98,0,3.38-.85,4.21-2.56.83-1.7,1.24-4.34,1.24-7.91v-1.57c0-3.57-.41-6.2-1.24-7.91-.83-1.7-2.23-2.56-4.21-2.56h-.33c-1.98,0-3.38.85-4.21,2.56-.83,1.71-1.24,4.34-1.24,7.91v1.57c0,3.57.41,6.2,1.24,7.91.83,1.7,2.23,2.56,4.21,2.56Z"/><path class="cls-1" d="M278.13,116.55v11.44h-4.97v-30.68h9.06c6.46,0,9.69,3.07,9.69,9.2v.79c0,4.3-1.57,7.11-4.71,8.42l4.71,12.27h-5.38l-4.16-11.44h-4.23ZM278.13,111.95h4.27c2.97,0,4.45-1.6,4.45-4.8v-.43c0-3.2-1.48-4.8-4.45-4.8h-4.27v10.03Z"/><path class="cls-1" d="M308.23,97.32v13.57l8.31-13.57h6.01l-8.24,12.47,8.24,18.21h-5.53l-5.86-13.45-2.93,4.4v9.05h-4.97v-30.68h4.97Z"/><path class="cls-1" d="M485.16,174.76c1.47-9.26,6.71-55.54-28.09-92.02-23.37-24.49-47.67-32.22-64.64-34.26l.08,38.01c14.04,1.49,30.9,7.56,47.28,24.11,23.85,24.1,22.15,53.83,20.67,64.16h24.7Z"/><path class="cls-1" d="M386.56,130.73l-.08-38.81c-10.26-.23-18.24,2.09-22.09,3.52l13.24,37.32c2.88-.91,5.87-1.6,8.94-2.02Z"/><path class="cls-1" d="M386.47,86.1l-.08-38.15c-6.17-.32-10.93.08-13.69.44l4.97,38.06c2.71-.28,5.66-.42,8.79-.36Z"/><path class="cls-1" d="M403.73,198.87c-11.4-1.14-19.75-11.34-18.62-22.74l6.01.6c-.8,8.09,5.12,15.32,13.21,16.13.74.07,1.48.11,2.22.11,5.15,0,10.11-1.75,14.16-5.06,4.62-3.78,7.49-9.14,8.08-15.08,1.82-18.23-11.54-34.54-29.77-36.36-1.63-.16-3.27-.24-4.9-.24-1.43,0-2.85.06-4.27.19-23.28,2.05-41.87,20.44-44.19,43.74-1.88,18.86,3.7,37.32,15.7,51.98,12.01,14.66,29,23.78,47.86,25.65,51.16,5.07,97.48-28.54,109.7-77h-85.91c-4.48,11.64-16.3,19.37-29.29,18.08Z"/><path class="cls-1" d="M434.59,174.76h19.74c1.24-8.3,3.61-37.24-18.84-59.92-15.07-15.23-30.3-20.98-42.98-22.5l.08,37.88c2.33-.07,4.68.02,7.02.25,21.54,2.15,37.32,21.42,35.18,42.96-.04.45-.13.88-.2,1.32Z"/><path class="cls-1" d="M392.34,4.33l.08,37.87c18.03,1.96,43.88,10.01,69.02,36.36,36.03,37.77,31.74,84.09,29.86,96.19h28.94c.55-2.93,1.01-5.9,1.31-8.92,7.98-80.05-49.75-151.79-129.21-161.5Z"/></svg>