<?xml version="1.0" standalone="no"?>
<!DOCTYPE svg PUBLIC "-//W3C//DTD SVG 20010904//EN"
 "http://www.w3.org/TR/2001/REC-SVG-20010904/DTD/svg10.dtd">
<svg version="1.0" xmlns="http://www.w3.org/2000/svg"
 width="1068.000000pt" height="1068.000000pt" viewBox="0 0 1068.000000 1068.000000"
 preserveAspectRatio="xMidYMid meet">
<metadata>
Created by potrace 1.14, written by Peter Selinger 2001-2017
</metadata>
<g transform="translate(0.000000,1068.000000) scale(0.100000,-0.100000)"
fill="#000000" stroke="none">
<path d="M3687 9778 c1 -348 2 -690 2 -759 l1 -127 53 -5 c28 -3 72 -9 97 -12
25 -4 56 -8 70 -9 14 -2 36 -6 50 -9 14 -4 36 -9 50 -11 111 -19 407 -96 485
-126 11 -5 49 -18 85 -31 126 -43 353 -137 390 -160 8 -5 26 -14 40 -20 57
-24 116 -54 132 -67 9 -7 22 -14 30 -16 22 -3 311 -175 316 -188 2 -4 8 -8 13
-8 27 0 426 -296 539 -400 9 -8 52 -46 96 -85 196 -173 470 -463 610 -647 27
-35 52 -64 56 -66 4 -2 8 -8 8 -13 0 -5 6 -17 14 -26 34 -42 86 -114 86 -119
0 -3 8 -16 18 -29 58 -76 222 -351 222 -373 0 -6 4 -12 8 -14 12 -4 132 -254
180 -373 85 -213 158 -423 188 -543 2 -9 11 -44 19 -77 17 -69 51 -216 59
-260 18 -90 36 -198 41 -241 4 -27 8 -60 10 -73 5 -29 15 -125 21 -191 27
-334 23 -726 -11 -980 -4 -25 -8 -65 -11 -90 l-4 -45 575 1 c316 0 577 3 580
5 4 5 26 135 40 239 3 25 8 56 10 70 2 14 6 59 9 100 3 41 9 116 13 165 13
179 7 716 -11 895 -2 19 -7 65 -10 102 -4 37 -9 77 -11 90 -3 13 -8 47 -11 77
-3 30 -8 64 -10 75 -2 11 -6 36 -9 56 -3 20 -7 47 -10 60 -3 13 -7 40 -10 60
-3 20 -8 47 -11 60 -3 14 -7 39 -10 55 -3 17 -10 45 -15 63 -6 17 -12 44 -13
60 -3 30 -6 39 -48 197 -16 61 -32 119 -34 130 -2 11 -27 92 -56 180 -28 88
-52 163 -52 167 -1 3 -4 10 -8 14 -5 4 -8 14 -8 22 0 8 -6 28 -14 45 -8 18
-26 64 -41 102 -15 39 -32 81 -38 95 -6 14 -11 28 -11 31 -1 6 -24 58 -79 179
-80 175 -222 447 -285 545 -6 11 -15 27 -19 35 -3 8 -19 34 -35 57 -15 23 -28
46 -28 52 0 6 -4 11 -10 11 -5 0 -10 7 -10 15 0 8 -4 15 -10 15 -5 0 -10 7
-10 15 0 8 -4 15 -10 15 -5 0 -10 5 -10 12 0 6 -11 26 -25 44 -14 18 -25 35
-25 39 0 3 -4 11 -10 18 -43 53 -60 76 -60 81 0 7 -13 24 -42 57 -10 10 -18
21 -18 24 0 11 -267 349 -320 406 -8 9 -55 60 -105 114 -49 55 -137 146 -194
202 -89 89 -140 137 -289 271 -14 12 -30 22 -35 22 -6 0 -7 3 -3 7 3 4 -2 12
-12 17 -11 6 -39 28 -63 48 -58 49 -211 169 -239 188 -13 8 -35 24 -49 36 -28
22 -171 122 -199 139 -9 6 -38 25 -64 43 -26 17 -51 32 -56 32 -6 0 -12 4 -14
8 -3 8 -80 56 -159 100 -71 39 -84 47 -89 52 -13 13 -426 220 -480 240 -19 7
-39 17 -45 21 -40 29 -617 238 -697 253 -15 2 -31 7 -36 10 -7 4 -207 58 -267
72 -102 24 -318 66 -403 79 -15 3 -43 7 -62 10 -53 9 -90 14 -140 21 l-45 5 2
-633z"/>
<path d="M3058 8665 c-4 -3 -107 -14 -136 -15 -22 0 -23 -3 -17 -42 3 -24 8
-59 10 -78 4 -46 16 -139 20 -169 7 -40 15 -103 20 -146 4 -41 12 -96 21 -150
2 -16 7 -54 9 -82 3 -29 7 -68 10 -85 3 -18 8 -44 10 -58 2 -14 6 -45 9 -70 3
-25 8 -67 12 -95 3 -27 8 -61 10 -75 1 -14 5 -43 8 -65 18 -126 28 -203 30
-230 2 -16 7 -55 11 -85 4 -30 8 -63 7 -72 -1 -18 7 -22 43 -20 84 4 265 11
288 12 l27 0 -2 763 -3 762 -192 1 c-106 1 -194 0 -195 -1z"/>
<path d="M3707 8642 c-16 -3 -17 -44 -17 -757 1 -415 5 -757 9 -760 5 -2 25
-7 45 -10 20 -3 53 -8 74 -11 20 -3 46 -7 57 -9 11 -1 20 -3 20 -4 0 -2 16 -4
35 -6 19 -1 62 -10 96 -19 33 -8 69 -17 80 -19 10 -2 26 -6 34 -9 8 -3 71 -24
141 -46 225 -73 434 -172 652 -309 66 -41 124 -78 131 -84 6 -5 52 -39 101
-75 50 -37 95 -72 100 -78 6 -7 19 -18 31 -26 70 -49 313 -282 411 -395 82
-95 87 -101 113 -135 14 -19 34 -45 46 -59 30 -38 125 -185 176 -271 85 -146
171 -334 223 -486 20 -60 39 -116 42 -124 4 -8 7 -19 8 -25 2 -5 10 -37 19
-70 16 -57 21 -76 30 -120 2 -11 9 -40 14 -65 16 -68 25 -128 37 -235 4 -33 9
-69 11 -80 2 -11 7 -74 10 -140 3 -66 6 -139 8 -163 1 -24 -2 -46 -6 -49 -5
-2 -5 -10 0 -16 5 -7 8 -19 7 -27 -1 -9 -6 -63 -9 -120 -11 -169 -15 -211 -21
-231 -5 -15 -1 -19 17 -20 131 -5 953 -2 961 3 12 7 14 18 22 98 3 30 8 71 11
90 12 87 17 204 17 450 0 276 -6 397 -27 565 -4 28 -8 64 -10 80 -2 17 -7 46
-10 65 -3 19 -8 53 -11 75 -3 22 -7 47 -10 55 -2 8 -6 31 -9 50 -7 47 -13 71
-24 111 -5 19 -8 42 -6 52 1 9 -1 17 -5 17 -4 0 -7 8 -8 18 -3 35 -64 256 -98
355 -19 56 -38 113 -41 127 -3 13 -10 30 -16 37 -6 7 -7 13 -3 13 4 0 2 7 -5
15 -7 8 -9 15 -5 15 4 0 0 11 -9 25 -9 13 -16 29 -16 34 0 6 -11 35 -25 65
-26 56 -47 107 -50 116 0 3 -29 61 -63 130 -87 175 -137 264 -204 362 -10 15
-18 32 -18 38 0 5 -4 10 -10 10 -5 0 -10 5 -10 10 0 11 -33 60 -62 94 -10 11
-18 25 -18 32 0 7 -3 14 -8 16 -4 2 -25 28 -47 58 -22 30 -45 62 -52 70 -25
32 -118 146 -128 156 -5 6 -35 40 -65 75 -105 121 -377 385 -491 477 -18 15
-49 41 -69 58 -91 79 -335 255 -499 359 -151 95 -476 260 -641 326 -111 43
-270 98 -270 92 0 -3 -6 -1 -13 5 -7 6 -24 13 -37 16 -14 3 -64 17 -112 31
-47 14 -97 27 -110 29 -13 3 -23 5 -23 6 0 1 -9 3 -20 5 -32 6 -89 18 -100 21
-5 2 -35 7 -65 13 -30 6 -64 12 -76 15 -11 2 -38 5 -60 7 -21 1 -43 6 -49 9
-5 4 -18 5 -28 2z"/>
<path d="M3237 6903 c-1 -1 -35 -4 -74 -8 -40 -3 -81 -8 -92 -10 -10 -2 -41
-7 -68 -11 -61 -9 -81 -12 -101 -18 -9 -3 -33 -7 -53 -10 -35 -5 -270 -74
-278 -81 -3 -4 20 -74 83 -247 13 -38 22 -68 19 -68 -3 0 -1 -6 4 -12 5 -7 24
-56 42 -108 18 -52 36 -104 41 -115 24 -58 39 -105 34 -105 -4 0 -1 -6 5 -14
6 -7 20 -42 32 -77 11 -35 24 -73 29 -84 5 -11 19 -48 30 -83 11 -35 32 -93
46 -130 14 -37 27 -74 29 -82 2 -8 19 -58 38 -110 99 -274 90 -255 123 -252
16 2 34 8 40 13 7 5 16 9 20 8 5 -1 11 -1 14 1 3 1 16 3 30 6 14 2 32 7 40 10
8 4 24 8 35 9 18 2 62 10 118 21 11 2 22 6 25 9 7 7 3 1537 -4 1544 -5 5 -203
9 -207 4z"/>
<path d="M3694 6133 l1 -758 55 -1 c90 -3 261 -14 268 -18 4 -2 30 -6 57 -10
28 -3 86 -15 130 -26 44 -12 87 -23 95 -25 60 -14 291 -121 298 -137 2 -5 9
-8 15 -8 29 0 215 -141 307 -232 74 -73 210 -237 210 -253 0 -3 14 -27 31 -52
56 -81 170 -344 175 -403 0 -8 5 -26 10 -40 10 -30 8 -20 22 -105 23 -138 30
-314 17 -427 -5 -41 -4 -48 12 -49 24 -1 733 -1 754 0 18 1 23 29 36 175 14
152 7 488 -12 621 -3 17 -7 46 -10 65 -2 19 -6 44 -9 55 -2 11 -7 43 -11 70
-5 28 -9 52 -10 55 -1 3 -5 23 -10 45 -13 56 -12 55 -15 58 -1 1 -3 9 -5 17
-2 8 -6 25 -9 38 -3 12 -8 31 -10 41 -7 32 -86 263 -103 301 -9 19 -34 73 -56
120 -23 47 -42 87 -42 90 -6 33 -191 319 -272 420 -104 131 -246 280 -368 386
-31 27 -70 61 -86 76 -17 15 -74 59 -127 99 -53 40 -114 85 -134 101 -20 15
-39 28 -42 28 -2 0 -31 17 -63 38 -83 55 -357 202 -377 202 -3 0 -29 11 -58
24 -29 14 -67 28 -83 32 -17 4 -34 10 -40 14 -13 9 -156 53 -172 53 -7 0 -13
4 -13 9 0 5 -4 7 -8 4 -5 -3 -26 -1 -47 5 -56 16 -149 34 -215 43 -19 3 -47 8
-61 11 l-27 5 2 -757z"/>
<path d="M3588 5125 c-2 -2 -28 -6 -58 -9 -53 -6 -80 -10 -137 -21 -16 -3 -37
-8 -48 -10 -11 -2 -47 -11 -80 -19 -33 -9 -67 -18 -75 -20 -85 -23 -292 -111
-385 -165 -126 -73 -301 -198 -318 -227 -4 -8 -12 -14 -17 -14 -5 0 -37 -29
-72 -63 -180 -181 -281 -321 -390 -540 -50 -99 -123 -291 -133 -348 -3 -18
-10 -40 -15 -49 -5 -10 -7 -20 -4 -22 2 -3 0 -16 -5 -30 -5 -14 -12 -45 -15
-69 -2 -24 -7 -55 -10 -69 -27 -117 -26 -550 0 -740 13 -98 25 -163 39 -220 8
-30 17 -70 20 -89 3 -19 8 -38 11 -43 3 -4 7 -18 9 -29 5 -23 22 -83 32 -109
3 -8 8 -26 10 -40 2 -14 8 -27 14 -28 5 -2 9 -10 9 -18 0 -28 64 -179 133
-314 38 -74 74 -145 81 -157 6 -13 14 -23 19 -23 4 0 7 -5 7 -11 0 -21 119
-193 234 -339 66 -83 338 -360 354 -360 6 0 12 -3 14 -7 12 -27 230 -187 368
-270 82 -50 248 -135 320 -165 115 -48 141 -59 194 -78 33 -12 107 -35 165
-51 106 -30 116 -33 181 -46 19 -4 37 -8 40 -8 3 -1 28 -5 55 -10 28 -4 59 -9
70 -12 166 -33 607 -48 850 -30 183 15 212 18 300 32 56 9 90 15 130 21 22 3
60 10 85 16 25 5 56 12 70 14 14 3 61 14 105 25 44 11 87 21 95 24 8 2 26 8
40 13 14 5 27 10 30 10 3 0 25 6 50 13 25 7 50 14 55 15 42 11 284 102 370
140 22 10 42 18 45 19 3 0 58 26 123 58 65 31 122 57 127 57 6 0 10 4 10 9 0
5 12 14 28 20 33 14 116 61 209 119 37 24 77 48 88 55 11 7 22 14 25 17 3 3
41 29 85 59 44 30 82 58 83 63 2 4 8 8 14 8 6 0 18 8 27 18 9 10 30 27 46 38
107 68 537 478 582 555 10 16 23 29 30 29 7 0 13 6 13 14 0 8 4 16 8 18 4 2
23 23 42 48 19 25 37 47 41 50 34 31 228 319 314 465 52 88 205 386 205 398 0
3 8 22 17 43 9 22 17 41 18 44 1 3 7 19 14 35 20 47 56 144 80 215 13 36 25
72 28 80 3 8 7 21 9 28 2 12 28 100 45 156 5 16 9 34 9 40 0 8 -455 11 -1717
11 l-1718 0 -27 -55 c-15 -30 -27 -61 -27 -67 -1 -7 -5 -13 -11 -13 -5 0 -10
-6 -10 -13 0 -8 -13 -33 -30 -55 -16 -23 -30 -44 -30 -46 0 -7 -40 -53 -110
-128 -119 -126 -293 -239 -447 -288 -21 -7 -45 -15 -53 -18 -18 -6 -27 -8 -65
-17 -16 -3 -37 -8 -45 -9 -108 -25 -372 -22 -422 5 -10 5 -18 8 -18 5 0 -6
-90 25 -157 55 -29 12 -53 26 -53 31 0 4 -6 8 -13 8 -8 0 -24 9 -37 20 -13 11
-27 20 -31 20 -14 0 -179 171 -179 186 0 8 -4 14 -8 14 -20 0 -109 196 -127
278 -3 12 -8 32 -11 45 -3 12 -7 68 -10 125 l-4 103 73 -6 c39 -4 91 -8 115
-10 24 -1 46 -5 49 -9 4 -4 8 -39 9 -79 7 -277 231 -525 505 -561 274 -36 546
58 745 258 140 141 221 297 251 486 15 96 8 358 -12 450 -4 14 -8 36 -11 50
-8 40 -65 202 -82 235 -9 17 -17 32 -17 35 -1 6 -34 66 -52 95 -7 11 -15 27
-19 35 -8 15 -51 75 -69 96 -5 7 -25 30 -43 52 -33 41 -116 124 -162 161 -14
11 -30 25 -35 29 -33 27 -116 82 -125 82 -5 0 -10 4 -10 9 0 5 -11 12 -25 15
-14 4 -25 11 -25 16 0 6 -7 10 -16 10 -8 0 -32 9 -52 20 -82 44 -246 96 -332
106 -25 3 -56 8 -70 11 -26 6 -386 13 -392 8z"/>
</g>
</svg>
